PathFileType        4      (X/Y/Z)      C:\Users\pc\Desktop\IMUTRC\Sujet_06\Sujet_06_Tpose.trc         
DataRate	CameraRate	NumFrames	NumMarkers	Units	OrigDataRate	OrigDataStartFrame	OrigNumFrames
60.0	60.0	4	64	mm	60.0	1	127
Frame#	Time	pHipOrigin			pRightASI			pLeftASI			pRightCSI			pLeftCSI			pRightIschialTub			pLeftIschialTub			pSacrum			pL5SpinalProcess			pL3SpinalProcess			pT12SpinalProcess			pIJ			pT4SpinalProcess			pT8SpinalProcess			pPX			pC7SpinalProcess			pTopOfHead			pRightAuricularis			pLeftAuricularis			pBackOfHead			pRightAcromion			pLeftAcromion			pRightArmLatEpicondyle			pRightArmMedEpicondyle			pLeftArmLatEpicondyle			pLeftArmMedEpicondyle			pRightUlnarStyloid			pRightRadialStyloid			pRightOlecranon			pLeftUlnarStyloid			pLeftRadialStyloid			pLeftOlecranon			pRightTopOfHand			pRightPinky			pRightBallHand			pLeftTopOfHand			pLeftPinky			pLeftBallHand			pRightGreaterTrochanter			pRightKneeLatEpicondyle			pRightKneeMedEpicondyle			pRightPatella			pLeftGreaterTrochanter			pLeftKneeLatEpicondyle			pLeftKneeMedEpicondyle			pLeftPatella			pRightTibialTub			pRightLatMalleolus			pRightMedMalleolus			pLeftTibialTub			pLeftLatMalleolus			pLeftMedMalleolus			pRightHeelFoot			pRightFirstMetatarsal			pRightFifthMetatarsal			pRightPivotFoot			pRightHeelCenter			pRightToe			pLeftHeelFoot			pLeftFirstMetatarsal			pLeftFifthMetatarsal			pLeftPivotFoot			pLeftHeelCenter			pLeftToe			
		X1	Y1	Z1	X2	Y2	Z2	X3	Y3	Z3	X4	Y4	Z4	X5	Y5	Z5	X6	Y6	Z6	X7	Y7	Z7	X8	Y8	Z8	X9	Y9	Z9	X10	Y10	Z10	X11	Y11	Z11	X12	Y12	Z12	X13	Y13	Z13	X14	Y14	Z14	X15	Y15	Z15	X16	Y16	Z16	X17	Y17	Z17	X18	Y18	Z18	X19	Y19	Z19	X20	Y20	Z20	X21	Y21	Z21	X22	Y22	Z22	X23	Y23	Z23	X24	Y24	Z24	X25	Y25	Z25	X26	Y26	Z26	X27	Y27	Z27	X28	Y28	Z28	X29	Y29	Z29	X30	Y30	Z30	X31	Y31	Z31	X32	Y32	Z32	X33	Y33	Z33	X34	Y34	Z34	X35	Y35	Z35	X36	Y36	Z36	X37	Y37	Z37	X38	Y38	Z38	X39	Y39	Z39	X40	Y40	Z40	X41	Y41	Z41	X42	Y42	Z42	X43	Y43	Z43	X44	Y44	Z44	X45	Y45	Z45	X46	Y46	Z46	X47	Y47	Z47	X48	Y48	Z48	X49	Y49	Z49	X50	Y50	Z50	X51	Y51	Z51	X52	Y52	Z52	X53	Y53	Z53	X54	Y54	Z54	X55	Y55	Z55	X56	Y56	Z56	X57	Y57	Z57	X58	Y58	Z58	X59	Y59	Z59	X60	Y60	Z60	X61	Y61	Z61	X62	Y62	Z62	X63	Y63	Z63	X64	Y64	Z64	
1	0.0	1136.02421	894.5573900000002	-1007.2878	1205.55564	981.12746	-898.4584899999999	1180.48531	982.3322100000001	-1127.64831	1164.30721	1039.07032	-911.8255099999999	1143.13798	1040.10296	-1105.04486	1093.57103	844.1872600000002	-953.99185	1082.95773	844.7035900000001	-1050.60152	1077.85187	912.3418300000001	-1000.80509	1104.12695	994.2076300000001	-1002.3540499999999	1106.88067	1109.00333	-1001.6082499999999	1095.63632	1213.12837	-998.9118999999998	1220.07003	1448.91563	-1019.4500599999999	1074.46709	1407.89668	-994.0928899999999	1080.7777	1316.96655	-995.5844899999998	1233.7239	1325.17035	-1022.3758899999999	1071.54127	1464.17583	-992.4291899999998	1105.27434	1735.47461	-979.5784899999999	1135.45052	1626.12899	-922.3240699999999	1098.2753	1638.7502	-1061.6164	1062.30483	1624.63739	-978.1442699999999	1130.86098	1454.25097	-821.1822299999999	1057.37108	1457.3489	-1171.87994	1181.23111	1401.75818	-550.9160899999999	1238.88712	1382.94109	-568.0120999999999	962.25301	1373.30307	-1428.66432	1018.24531	1346.33957	-1438.87603	1255.17996	1332.85781	-313.40774999999996	1232.46177	1378.63841	-303.59761999999995	1218.57844	1370.66409	-567.2662999999999	900.69589	1286.21668	-1663.3042	872.52763	1329.93199	-1660.60785	1003.55881	1339.74211	-1431.41804	1287.70828	1344.7906	-147.03716999999992	1298.26421	1327.69459	-226.2066199999999	1271.75965	1350.81436	-286.21475999999996	868.39705	1285.64299	-1827.20791	901.95801	1267.34223	-1755.0375	903.67909	1296.54313	-1691.93142	1149.39122	862.66014	-860.308	1111.58494	485.11366000000004	-875.33872	1105.38907	482.93363000000005	-948.88599	1149.44859	482.87626000000006	-917.96401	1114.91235	862.4306600000001	-1152.83337	1088.35043	484.76945000000006	-1124.3209	1101.37323	483.56469000000004	-1051.69154	1135.96684	483.62206000000003	-1092.8826	1160.11926	450.5774200000001	-917.96401	1095.98053	85.65216000000005	-872.12605	1091.04678	83.93109000000005	-930.98681	1145.83433	450.11847000000006	-1095.17736	1067.41069	85.82427000000007	-1117.78081	1077.73714	84.79163000000007	-1059.55111	1060.46902	-0.1721099999999446	-904.53963	1212.72678	12.506480000000058	-956.74557	1220.52899	6.884300000000054	-880.9609	1238.08395	11.014880000000057	-921.97985	1097.5295	4.015840000000056	-908.03915	1313.75388	15.604410000000057	-929.43784	1041.99615	-0.1147399999999339	-1079.40084	1202.97402	11.301730000000065	-1086.05566	1182.32112	10.728030000000071	-1159.60293	1213.75943	12.449110000000069	-1127.70568	1077.85187	4.360060000000066	-1089.49781	1286.90511	17.61233000000007	-1148.30121	
2	0.017	1136.08158	894.6147600000002	-1007.2878	1205.61301	981.18483	-898.5158599999999	1180.42794	982.4469500000001	-1127.64831	1164.30721	1039.12769	-911.8255099999999	1143.02325	1040.16033	-1105.04486	1093.68576	844.1299000000001	-953.99185	1083.07247	844.6462200000001	-1050.60152	1077.90924	912.3418300000001	-1000.74772	1104.12695	994.2076300000001	-1002.2966799999999	1106.88067	1109.0607	-1001.6082499999999	1095.63632	1213.18573	-998.8545299999998	1220.29951	1448.85827	-1019.5074299999999	1074.6392	1407.95405	-994.1502599999999	1080.83507	1317.08129	-995.6418599999998	1233.83863	1325.11298	-1022.4332599999999	1071.77074	1464.2332	-992.4865599999999	1105.50381	1735.53198	-979.6932299999999	1135.67999	1626.18635	-922.4388099999999	1098.56214	1638.80757	-1061.73114	1062.53431	1624.63739	-978.2016299999999	1131.03309	1454.30834	-821.2395999999999	1057.54319	1457.3489	-1171.93731	1181.46059	1401.87292	-550.9734599999999	1239.1166	1383.05583	-568.0694699999999	962.42511	1373.18834	-1428.72169	1018.41742	1346.16746	-1438.87603	1255.52418	1332.97255	-313.52248999999995	1232.80599	1378.81051	-303.65498999999994	1218.80791	1370.77883	-567.3236699999999	900.868	1285.98721	-1663.3042	872.69974	1329.70251	-1660.60785	1003.67354	1339.62737	-1431.41804	1288.0525	1344.90534	-147.1519099999999	1298.60842	1327.80933	-226.3213599999999	1272.10387	1350.9291	-286.32949999999994	868.62653	1285.35614	-1827.20791	902.13012	1267.05538	-1754.98013	903.8512	1296.31366	-1691.93142	1149.50596	862.66014	-860.308	1111.64231	485.17103000000003	-875.39609	1105.50381	482.93363000000005	-948.88599	1149.50596	482.87626000000006	-918.02138	1114.96972	862.4880300000001	-1152.83337	1088.46517	484.76945000000006	-1124.37827	1101.4306	483.56469000000004	-1051.69154	1136.08158	483.62206000000003	-1092.8826	1160.234	450.5774200000001	-917.96401	1096.0379	85.65216000000005	-872.06868	1091.04678	83.93109000000005	-930.92944	1145.94907	450.17584000000005	-1095.17736	1067.41069	85.88164000000008	-1117.83818	1077.67977	84.84900000000007	-1059.66585	1060.46902	-0.11473999999994461	-904.48226	1212.72678	12.563850000000059	-956.80294	1220.58636	6.884300000000054	-881.07564	1238.08395	11.072250000000057	-922.09459	1097.5295	4.073210000000056	-908.03915	1313.75388	15.661780000000057	-929.60995	1041.99615	-0.0573699999999339	-1079.51558	1202.91665	11.416460000000066	-1085.94093	1182.37849	10.84277000000007	-1159.4882	1213.75943	12.506480000000069	-1127.53357	1077.79451	4.417430000000067	-1089.55518	1286.96248	17.727070000000072	-1148.01436	
3	0.033	1136.19632	894.6147600000002	-1007.2878	1205.72774	981.2422	-898.5158599999999	1180.3132	982.5616900000001	-1127.64831	1164.36458	1039.12769	-911.8255099999999	1142.96588	1040.2177	-1104.98749	1093.85787	844.1299000000001	-953.99185	1083.18721	844.6462200000001	-1050.54415	1078.02398	912.2844600000001	-1000.74772	1104.12695	994.2650000000001	-1002.2966799999999	1106.88067	1109.11807	-1001.5508799999999	1095.69368	1213.2431	-998.8545299999998	1220.47162	1448.8009	-1019.5647999999999	1074.81131	1408.01142	-994.2076299999999	1080.94981	1317.13866	-995.6418599999998	1233.95337	1325.05561	-1022.4332599999999	1072.00022	1464.29057	-992.5439299999999	1105.79066	1735.53198	-979.8079699999998	1135.96684	1626.24372	-922.5535399999999	1098.79162	1638.80757	-1061.84588	1062.82115	1624.69476	-978.3163699999999	1131.14783	1454.36571	-821.2969699999999	1057.7153	1457.29153	-1172.05204	1181.69006	1401.98766	-551.0308299999999	1239.34607	1383.17057	-568.1268399999999	962.59722	1373.0736	-1428.77906	1018.58953	1345.99535	-1438.9334	1255.81102	1333.14466	-313.57985999999994	1233.1502	1378.92525	-303.7697299999999	1219.03739	1370.89357	-567.3810399999999	900.98274	1285.75773	-1663.3042	872.87185	1329.5304	-1660.66522	1003.84565	1339.45527	-1431.47541	1288.45408	1344.96271	-147.2666499999999	1298.95264	1327.92407	-226.3787299999999	1272.44808	1351.04384	-286.38686999999993	868.85601	1285.0693	-1827.20791	902.30223	1266.8259	-1754.98013	904.0233	1296.08418	-1691.93142	1149.6207	862.66014	-860.308	1111.69968	485.17103000000003	-875.39609	1105.56118	482.93363000000005	-948.88599	1149.6207	482.87626000000006	-918.02138	1115.02709	862.4880300000001	-1152.83337	1088.52254	484.8268100000001	-1124.37827	1101.48797	483.62206000000003	-1051.69154	1136.13895	483.6794300000001	-1092.8826	1160.29136	450.5774200000001	-917.96401	1096.0379	85.70953000000006	-872.01131	1091.04678	83.93109000000005	-930.87207	1146.00644	450.17584000000005	-1095.17736	1067.35332	85.93901000000007	-1117.89555	1077.67977	84.90636000000008	-1059.72322	1060.46902	-0.11473999999994461	-904.42489	1212.66941	12.678590000000058	-956.86031	1220.64373	6.941670000000054	-881.13301	1238.08395	11.129620000000056	-922.20933	1097.58687	4.073210000000056	-907.98178	1313.75388	15.719150000000058	-929.78206	1041.93878	6.611180368186499E-14	-1079.68769	1202.91665	11.473830000000065	-1085.82619	1182.49323	10.900140000000071	-1159.43083	1213.8168	12.621220000000068	-1127.41883	1077.79451	4.474790000000066	-1089.61255	1287.01985	17.84181000000007	-1147.72752	
4	0.05	1136.31105	894.6147600000002	-1007.2878	1205.84248	981.29957	-898.5158599999999	1180.25583	982.6190600000001	-1127.64831	1164.36458	1039.18506	-911.7681399999999	1142.85114	1040.27507	-1104.98749	1094.08735	844.0725300000001	-953.93448	1083.30195	844.6462200000001	-1050.54415	1078.08135	912.2844600000001	-1000.69035	1104.12695	994.2650000000001	-1002.2393099999999	1106.88067	1109.11807	-1001.5508799999999	1095.69368	1213.30047	-998.8545299999998	1220.64373	1448.74353	-1019.6221699999999	1074.98342	1408.06879	-994.2649999999999	1081.00718	1317.19603	-995.6418599999998	1234.01074	1324.94087	-1022.4332599999999	1072.17233	1464.34794	-992.6012899999998	1106.02013	1735.58935	-979.9227099999999	1136.19632	1626.30109	-922.6682799999999	1099.07847	1638.86494	-1061.96062	1063.05063	1624.75213	-978.4311099999999	1131.31994	1454.42307	-821.3543399999999	1057.83004	1457.29153	-1172.10941	1181.86217	1402.04503	-551.0881999999999	1239.51818	1383.22794	-568.1842099999999	962.76933	1372.95886	-1428.77906	1018.76163	1345.82324	-1438.9334	1256.09787	1333.2594	-313.63722999999993	1233.43705	1379.03999	-303.8270999999999	1219.2095	1371.00831	-567.4384099999999	901.15485	1285.58562	-1663.3042	873.04395	1329.30093	-1660.72259	1004.01776	1339.28316	-1431.47541	1288.79829	1345.13481	-147.3240199999999	1299.23948	1328.0388	-226.4934599999999	1272.73493	1351.15858	-286.50160999999997	869.08548	1284.83982	-1827.20791	902.47434	1266.59643	-1754.98013	904.19541	1295.8547	-1691.93142	1149.79281	862.66014	-860.36537	1111.81442	485.17103000000003	-875.45346	1105.67592	482.99100000000004	-948.94336	1149.67807	482.87626000000006	-918.07875	1115.08446	862.5454000000001	-1152.83337	1088.63728	484.8841800000001	-1124.37827	1101.60271	483.6794300000001	-1051.69154	1136.19632	483.7368000000001	-1092.8826	1160.34873	450.5774200000001	-918.02138	1096.0379	85.70953000000006	-871.95394	1091.04678	83.98846000000006	-930.87207	1146.06381	450.23321000000004	-1095.17736	1067.35332	85.99638000000007	-1117.95292	1077.6224	84.90636000000008	-1059.78059	1060.52639	-0.11473999999994461	-904.42489	1212.66941	12.678590000000058	-956.97504	1220.64373	6.941670000000054	-881.24775	1238.08395	11.129620000000056	-922.2667	1097.58687	4.130580000000056	-907.98178	1313.75388	15.776520000000056	-929.95417	1041.93878	6.611531658120834E-14	-1079.74506	1202.85929	11.531200000000066	-1085.71145	1182.60797	10.95751000000007	-1159.31609	1213.87416	12.678590000000069	-1127.24673	1077.79451	4.532160000000067	-1089.66992	1287.13459	17.899180000000072	-1147.49804	
